<svg xmlns="http://www.w3.org/2000/svg" viewBox="0 0 320 240" fill="none" role="img" aria-labelledby="il-error-t"><title id="il-error-t">Error: the bucket tipped over, the spill is contained</title><path d="M 24 190 L 296 190" stroke="var(--acc-4)" stroke-width="1.6"/><path d="M 201.6 179.5 L 201.6 190.0" fill="none" stroke="var(--acc-5)" stroke-width="6.3" stroke-linecap="round"/><path d="M 218.4 179.5 L 218.4 190.0" fill="none" stroke="var(--acc-5)" stroke-width="6.3" stroke-linecap="round"/><path d="M 194.2 181.6 C 192.2 152.2 200.6 145.9 210.0 145.9 C 219.4 145.9 227.8 152.2 225.8 181.6 Z" fill="var(--amber)"/><path d="M 197.4 153.2 Q 184.8 152.0 168.0 146.9" fill="none" stroke="var(--amber)" stroke-width="7.4" stroke-linecap="round"/><circle cx="168.0" cy="146.9" r="4.4" fill="var(--acc-2)"/><path d="M 222.6 153.2 Q 231.4 150.7 245.7 140.6" fill="none" stroke="var(--amber)" stroke-width="7.4" stroke-linecap="round"/><circle cx="245.7" cy="140.6" r="4.4" fill="var(--acc-2)"/><circle cx="210.0" cy="132.2" r="17.9" fill="var(--acc-2)"/><path d="M 192.2 132.2 A 17.9 17.9 0 0 1 227.8 130.1 C 217.1 114.0 197.5 116.2 192.2 132.2 Z" fill="var(--acc-5)"/><circle cx="199.9" cy="135.4" r="1.9" fill="var(--nw)"/><circle cx="212.5" cy="135.4" r="1.9" fill="var(--nw)"/><path d="M 203.1 141.7 Q 206.2 144.8 209.4 141.7" fill="none" stroke="var(--nw)" stroke-width="1.7" stroke-linecap="round"/><g transform="rotate(-64 122 176)"><path d="M 102 158 L 142 158 L 136 192 L 108 192 Z" fill="var(--acc-2)"/><path d="M 102 158 L 142 158" stroke="var(--acc-5)" stroke-width="3" stroke-linecap="round"/></g><path d="M 104 174 C 92 180 84 184 78 188" fill="none" stroke="var(--d-blue)" stroke-width="4" stroke-linecap="round"/><path d="M 44 190 C 62 184 96 184 116 190 C 96 195 62 195 44 190 Z" fill="var(--acc-wash)" stroke="var(--d-blue)" stroke-width="2"/><path d="M 66.0 189 A 14.0 14.0 0 0 1 94.0 189" fill="none" stroke="var(--d-blue)" stroke-width="1.2" stroke-opacity="0.8"/><path d="M 70.7 189 A 9.3 9.3 0 0 1 89.3 189" fill="none" stroke="var(--d-blue)" stroke-width="1.2" stroke-opacity="0.8"/><path d="M 236 96 L 236 118 M 236 128 L 236 130" stroke="var(--seal)" stroke-width="5" stroke-linecap="round"/></svg>
