<svg xmlns="http://www.w3.org/2000/svg" viewBox="0 0 320 240" fill="none" role="img" aria-labelledby="il-feedback-t"><title id="il-feedback-t">Feedback: a ripple sent out and the reply that returns</title><rect x="0" y="186" width="320" height="54" fill="var(--acc-wash)"/><path d="M 0 186 L 320 186" fill="none" stroke="var(--acc-4)" stroke-width="1.6"/><path d="M -20.0 198 A 20.0 20.0 0 0 1 20.0 198" fill="none" stroke="var(--acc-4)" stroke-width="1.3" stroke-opacity="0.55"/><path d="M -15.0 198 A 15.0 15.0 0 0 1 15.0 198" fill="none" stroke="var(--acc-4)" stroke-width="1.3" stroke-opacity="0.55"/><path d="M -10.0 198 A 10.0 10.0 0 0 1 10.0 198" fill="none" stroke="var(--acc-4)" stroke-width="1.3" stroke-opacity="0.55"/><path d="M 26.0 198 A 20.0 20.0 0 0 1 66.0 198" fill="none" stroke="var(--acc-4)" stroke-width="1.3" stroke-opacity="0.55"/><path d="M 31.0 198 A 15.0 15.0 0 0 1 61.0 198" fill="none" stroke="var(--acc-4)" stroke-width="1.3" stroke-opacity="0.55"/><path d="M 36.0 198 A 10.0 10.0 0 0 1 56.0 198" fill="none" stroke="var(--acc-4)" stroke-width="1.3" stroke-opacity="0.55"/><path d="M 72.0 198 A 20.0 20.0 0 0 1 112.0 198" fill="none" stroke="var(--acc-4)" stroke-width="1.3" stroke-opacity="0.55"/><path d="M 77.0 198 A 15.0 15.0 0 0 1 107.0 198" fill="none" stroke="var(--acc-4)" stroke-width="1.3" stroke-opacity="0.55"/><path d="M 82.0 198 A 10.0 10.0 0 0 1 102.0 198" fill="none" stroke="var(--acc-4)" stroke-width="1.3" stroke-opacity="0.55"/><path d="M 118.0 198 A 20.0 20.0 0 0 1 158.0 198" fill="none" stroke="var(--acc-4)" stroke-width="1.3" stroke-opacity="0.55"/><path d="M 123.0 198 A 15.0 15.0 0 0 1 153.0 198" fill="none" stroke="var(--acc-4)" stroke-width="1.3" stroke-opacity="0.55"/><path d="M 128.0 198 A 10.0 10.0 0 0 1 148.0 198" fill="none" stroke="var(--acc-4)" stroke-width="1.3" stroke-opacity="0.55"/><path d="M 164.0 198 A 20.0 20.0 0 0 1 204.0 198" fill="none" stroke="var(--acc-4)" stroke-width="1.3" stroke-opacity="0.55"/><path d="M 169.0 198 A 15.0 15.0 0 0 1 199.0 198" fill="none" stroke="var(--acc-4)" stroke-width="1.3" stroke-opacity="0.55"/><path d="M 174.0 198 A 10.0 10.0 0 0 1 194.0 198" fill="none" stroke="var(--acc-4)" stroke-width="1.3" stroke-opacity="0.55"/><path d="M 210.0 198 A 20.0 20.0 0 0 1 250.0 198" fill="none" stroke="var(--acc-4)" stroke-width="1.3" stroke-opacity="0.55"/><path d="M 215.0 198 A 15.0 15.0 0 0 1 245.0 198" fill="none" stroke="var(--acc-4)" stroke-width="1.3" stroke-opacity="0.55"/><path d="M 220.0 198 A 10.0 10.0 0 0 1 240.0 198" fill="none" stroke="var(--acc-4)" stroke-width="1.3" stroke-opacity="0.55"/><path d="M 256.0 198 A 20.0 20.0 0 0 1 296.0 198" fill="none" stroke="var(--acc-4)" stroke-width="1.3" stroke-opacity="0.55"/><path d="M 261.0 198 A 15.0 15.0 0 0 1 291.0 198" fill="none" stroke="var(--acc-4)" stroke-width="1.3" stroke-opacity="0.55"/><path d="M 266.0 198 A 10.0 10.0 0 0 1 286.0 198" fill="none" stroke="var(--acc-4)" stroke-width="1.3" stroke-opacity="0.55"/><path d="M 302.0 198 A 20.0 20.0 0 0 1 342.0 198" fill="none" stroke="var(--acc-4)" stroke-width="1.3" stroke-opacity="0.55"/><path d="M 307.0 198 A 15.0 15.0 0 0 1 337.0 198" fill="none" stroke="var(--acc-4)" stroke-width="1.3" stroke-opacity="0.55"/><path d="M 312.0 198 A 10.0 10.0 0 0 1 332.0 198" fill="none" stroke="var(--acc-4)" stroke-width="1.3" stroke-opacity="0.55"/><path d="M 76.0 176.0 L 76.0 186.0" fill="none" stroke="var(--acc-5)" stroke-width="6.0" stroke-linecap="round"/><path d="M 92.0 176.0 L 92.0 186.0" fill="none" stroke="var(--acc-5)" stroke-width="6.0" stroke-linecap="round"/><path d="M 69.0 178.0 C 67.0 150.0 75.0 144.0 84.0 144.0 C 93.0 144.0 101.0 150.0 99.0 178.0 Z" fill="var(--d-blue)"/><path d="M 72.0 151.0 Q 68.4 147.4 58.0 133.0" fill="none" stroke="var(--d-blue)" stroke-width="7.0" stroke-linecap="round"/><circle cx="58.0" cy="133.0" r="4.2" fill="var(--acc-2)"/><path d="M 96.0 151.0 Q 105.6 143.0 120.0 111.0" fill="none" stroke="var(--d-blue)" stroke-width="7.0" stroke-linecap="round"/><circle cx="120.0" cy="111.0" r="4.2" fill="var(--acc-2)"/><circle cx="84.0" cy="131.0" r="17.0" fill="var(--acc-2)"/><path d="M 67.0 131.0 A 17.0 17.0 0 0 1 101.0 129.0 C 90.8 113.7 72.1 115.7 67.0 131.0 Z" fill="var(--acc-5)"/><circle cx="81.0" cy="134.0" r="1.8" fill="var(--nw)"/><circle cx="93.0" cy="134.0" r="1.8" fill="var(--nw)"/><path d="M 84.0 140.0 Q 87.0 143.0 90.0 140.0" fill="none" stroke="var(--nw)" stroke-width="1.6" stroke-linecap="round"/><circle cx="150" cy="186" r="3.5" fill="var(--d-teal)"/><path d="M 138 186 A 12 12 0 0 1 162 186" fill="none" stroke="var(--d-teal)" stroke-width="1.6" stroke-opacity="0.76"/><path d="M 126 186 A 24 24 0 0 1 174 186" fill="none" stroke="var(--d-teal)" stroke-width="1.6" stroke-opacity="0.61"/><path d="M 112 186 A 38 38 0 0 1 188 186" fill="none" stroke="var(--d-teal)" stroke-width="1.6" stroke-opacity="0.44"/><path d="M 214 118 C 214 104 228 96 244 96 C 262 96 274 106 274 120 C 274 132 262 140 246 140 C 242 140 238 140 234 139 L 222 148 C 224 142 224 138 222 134 C 217 130 214 125 214 118 Z" fill="var(--acc-inbox)"/><path d="M 232 112 C 238 108 250 108 256 112" fill="none" stroke="var(--on-acc)" stroke-width="2.4" stroke-linecap="round"/><path d="M 232 122 C 240 126 248 126 256 122" fill="none" stroke="var(--on-acc)" stroke-width="2.4" stroke-linecap="round"/></svg>
